<svg width="960" height="600" viewBox="0 0 960 600" fill="none" xmlns="http://www.w3.org/2000/svg">
  <defs>
    <linearGradient id="bg" x1="0" y1="0" x2="960" y2="600" gradientUnits="userSpaceOnUse">
      <stop offset="0" stop-color="#13092B" />
      <stop offset="1" stop-color="#30145A" />
    </linearGradient>
    <radialGradient id="pulse" cx="0.5" cy="0.45" r="0.6">
      <stop offset="0" stop-color="#A855F7" stop-opacity="0.8" />
      <stop offset="1" stop-color="#000000" stop-opacity="0" />
    </radialGradient>
    <linearGradient id="line" x1="120" y1="120" x2="840" y2="480" gradientUnits="userSpaceOnUse">
      <stop stop-color="#C084FC" />
      <stop offset="0.5" stop-color="#8B5CF6" />
      <stop offset="1" stop-color="#5B21B6" />
    </linearGradient>
  </defs>
  <rect width="960" height="600" rx="48" fill="url(#bg)" />
  <rect x="60" y="60" width="840" height="480" rx="36" fill="#0B0620" opacity="0.45" />
  <rect x="96" y="96" width="768" height="416" rx="28" fill="#120A2C" opacity="0.8" />
  <circle cx="480" cy="304" r="220" fill="url(#pulse)" />
  <circle cx="480" cy="304" r="156" stroke="url(#line)" stroke-width="12" stroke-dasharray="120 32" opacity="0.6" />
  <circle cx="480" cy="304" r="98" stroke="#C4B5FD" stroke-width="4" stroke-dasharray="40 24" opacity="0.5" />
  <g opacity="0.8">
    <circle cx="312" cy="256" r="32" fill="#C084FC" />
    <circle cx="642" cy="212" r="26" fill="#22D3EE" />
    <circle cx="566" cy="398" r="28" fill="#F97316" />
    <circle cx="366" cy="412" r="24" fill="#FDE68A" />
  </g>
  <path d="M240 386C336 338 624 226 720 272" stroke="url(#line)" stroke-width="8" stroke-linecap="round" stroke-linejoin="round" opacity="0.7" />
  <rect x="180" y="446" width="600" height="48" rx="16" fill="#1F143C" opacity="0.8" />
  <rect x="204" y="462" width="332" height="16" rx="8" fill="#A855F7" opacity="0.9" />
  <rect x="204" y="484" width="168" height="8" rx="4" fill="#4ADE80" opacity="0.8" />
</svg>
